<svg width="402" height="402" viewBox="0 0 402 402" fill="none" xmlns="http://www.w3.org/2000/svg">
<g clip-path="url(#clip0_1_2196)">
<path d="M166.377 334.938H379.269C379.269 334.938 361.821 367.584 264.245 365.178C166.67 362.772 176.683 347.392 176.683 347.392C176.683 347.392 135.65 346.864 130.153 342.387C124.656 337.91 85.0999 348.912 65.0233 343.612C44.9467 338.311 65.0233 335.078 65.0233 335.078L166.377 334.938Z" fill="white" stroke="#111629" stroke-width="4.19779" stroke-linecap="round" stroke-linejoin="round"/>
<path d="M36.8516 335.078H379.88C397.127 296.506 375.962 257.279 349.856 250.558C326.212 244.471 292.878 263.595 283.802 299.723C279.485 295.582 267.766 285.51 250.4 283.96C228.908 282.041 207.439 293.948 194.855 314.36C191.336 311.004 155.123 277.655 104.782 287.338C61.5144 295.659 40.2082 329.538 36.8516 335.078Z" fill="white" stroke="#111629" stroke-width="4.19779" stroke-linecap="round" stroke-linejoin="round"/>
<path d="M367.727 238.464C373.042 238.464 377.351 234.155 377.351 228.84C377.351 223.525 373.042 219.216 367.727 219.216C362.412 219.216 358.103 223.525 358.103 228.84C358.103 234.155 362.412 238.464 367.727 238.464Z" fill="white" stroke="#111629" stroke-width="4.19779" stroke-linecap="round" stroke-linejoin="round"/>
<path d="M334.358 54.7102C334.358 52.3445 333.892 50.0019 332.987 47.8163C332.082 45.6307 330.755 43.6447 329.082 41.9719C327.409 40.2991 325.423 38.9722 323.237 38.0668C321.052 37.1615 318.709 36.6956 316.344 36.6956H100.668C98.3027 36.6956 95.9602 37.1615 93.7745 38.0668C91.5889 38.9722 89.603 40.2991 87.9302 41.9719C86.2574 43.6447 84.9304 45.6307 84.0251 47.8163C83.1198 50.0019 82.6538 52.3445 82.6538 54.7102V55.711H334.358V54.7102Z" fill="#111629" stroke="#111629" stroke-width="2.0989" stroke-linecap="round" stroke-linejoin="round"/>
<path d="M82.6538 55.7109V181.313C82.6538 183.679 83.1198 186.021 84.0251 188.207C84.9304 190.392 86.2574 192.378 87.9302 194.051C89.603 195.724 91.5889 197.051 93.7745 197.956C95.9602 198.862 98.3027 199.328 100.668 199.328H316.344C318.709 199.328 321.052 198.862 323.237 197.956C325.423 197.051 327.409 195.724 329.082 194.051C330.755 192.378 332.082 190.392 332.987 188.207C333.892 186.021 334.358 183.679 334.358 181.313V55.7109H82.6538Z" fill="white" stroke="#111629" stroke-width="4.19779" stroke-linecap="round" stroke-linejoin="round"/>
<path d="M360.931 94.2798H323.131C322.146 94.2798 321.348 95.0781 321.348 96.0629V111.512C321.348 112.497 322.146 113.295 323.131 113.295H360.931C361.916 113.295 362.715 112.497 362.715 111.512V96.0629C362.715 95.0781 361.916 94.2798 360.931 94.2798Z" fill="white" stroke="#111629" stroke-width="4.19779" stroke-linecap="round" stroke-linejoin="round"/>
<path d="M360.931 118.76H323.131C322.146 118.76 321.348 119.559 321.348 120.544V135.993C321.348 136.978 322.146 137.776 323.131 137.776H360.931C361.916 137.776 362.715 136.978 362.715 135.993V120.544C362.715 119.559 361.916 118.76 360.931 118.76Z" fill="#111629" stroke="#111629" stroke-width="2.0989" stroke-linecap="round" stroke-linejoin="round"/>
<path d="M240.616 114.509C240.616 114.509 238.869 115.038 237.905 114.759L240.616 114.509Z" fill="white"/>
<path d="M240.616 114.509C240.616 114.509 238.869 115.038 237.905 114.759" stroke="#111629" stroke-width="4.19779" stroke-linecap="round" stroke-linejoin="round"/>
<path d="M102.67 120.514C102.67 120.514 102.825 121.088 103.164 122.127" stroke="#111629" stroke-width="4.19779" stroke-linecap="round" stroke-linejoin="round"/>
<path d="M104.289 125.32C108.949 137.69 124.537 170.4 161.968 181.063C192.905 189.875 211.524 186.953 218.551 185.1" stroke="#111629" stroke-width="4.19779" stroke-linecap="round" stroke-linejoin="round" stroke-dasharray="25.27 25.27"/>
<path d="M220.178 184.631C221.24 184.296 221.767 184.065 221.767 184.065" stroke="#111629" stroke-width="4.19779" stroke-linecap="round" stroke-linejoin="round"/>
<path d="M111.677 55.7109V57.3985" stroke="#111629" stroke-width="4.19779" stroke-linecap="round" stroke-linejoin="round"/>
<path d="M111.677 60.8191V195.93" stroke="#111629" stroke-width="4.19779" stroke-linecap="round" stroke-linejoin="round" stroke-dasharray="25.53 25.53"/>
<path d="M111.677 197.64V199.328" stroke="#111629" stroke-width="4.19779" stroke-linecap="round" stroke-linejoin="round"/>
<path d="M82.6538 71.0984H84.3413" stroke="#111629" stroke-width="4.19779" stroke-linecap="round" stroke-linejoin="round"/>
<path d="M87.7432 71.0984H330.97" stroke="#111629" stroke-width="4.19779" stroke-linecap="round" stroke-linejoin="round" stroke-dasharray="25.39 25.39"/>
<path d="M332.671 71.0984H334.358" stroke="#111629" stroke-width="4.19779" stroke-linecap="round" stroke-linejoin="round"/>
<path d="M70.7795 193.101L78.2989 202.891L95.5137 189.667L88.2509 179.681L70.7795 193.101Z" fill="white"/>
<path d="M108.415 190.485L126.53 176.571L125.86 160.891L113.822 170.138C114.199 171.288 114.161 172.532 113.714 173.657C113.268 174.781 112.442 175.713 111.38 176.291C110.318 176.869 109.086 177.056 107.9 176.821C106.714 176.585 105.648 175.94 104.887 175C104.127 174.059 103.72 172.882 103.738 171.673C103.756 170.463 104.197 169.299 104.985 168.381C105.773 167.463 106.858 166.851 108.05 166.65C109.243 166.449 110.468 166.673 111.513 167.282L123.624 157.98L108.647 153.29L90.5327 167.204L88.9689 179.129L88.2507 179.681L95.5136 189.667L96.4884 188.918L108.415 190.485Z" fill="white"/>
<path d="M70.7795 193.101L63.7012 198.538L71.2207 208.328L78.299 202.891L70.7795 193.101Z" fill="white"/>
<path d="M63.701 198.538L43.4963 214.058L51.0158 223.847L71.2205 208.327L63.701 198.538Z" fill="white"/>
<path d="M70.7795 193.101L78.2989 202.891L95.5137 189.667L88.2509 179.681L70.7795 193.101Z" stroke="white" stroke-width="2.0989" stroke-miterlimit="10"/>
<path d="M108.415 190.485L126.53 176.571L125.86 160.891L113.822 170.138C114.199 171.288 114.161 172.532 113.714 173.657C113.268 174.781 112.442 175.713 111.38 176.291C110.318 176.869 109.086 177.056 107.9 176.821C106.714 176.585 105.648 175.94 104.887 175C104.127 174.059 103.72 172.882 103.738 171.673C103.756 170.463 104.197 169.299 104.985 168.381C105.773 167.463 106.858 166.851 108.05 166.65C109.243 166.449 110.468 166.673 111.513 167.282L123.624 157.98L108.647 153.29L90.5327 167.204L88.9689 179.129L88.2507 179.681L95.5136 189.667L96.4884 188.918L108.415 190.485Z" stroke="white" stroke-width="2.0989" stroke-miterlimit="10"/>
<path d="M70.7795 193.101L63.7012 198.538L71.2207 208.328L78.299 202.891L70.7795 193.101Z" fill="#111629" stroke="#111629" stroke-width="2.0989" stroke-linecap="round" stroke-linejoin="round"/>
<path d="M63.701 198.538L43.4963 214.058L51.0158 223.847L71.2205 208.327L63.701 198.538Z" stroke="white" stroke-width="2.0989" stroke-miterlimit="10"/>
<path d="M70.7795 193.101L78.2989 202.891L95.5137 189.667L88.2509 179.681L70.7795 193.101Z" stroke="#111629" stroke-width="4.19779" stroke-linecap="round" stroke-linejoin="round"/>
<path d="M108.415 190.485L126.53 176.571L125.86 160.891L113.822 170.138C114.199 171.288 114.161 172.532 113.714 173.657C113.268 174.781 112.442 175.713 111.38 176.291C110.318 176.869 109.086 177.056 107.9 176.821C106.714 176.585 105.648 175.94 104.887 175C104.127 174.059 103.72 172.882 103.738 171.673C103.756 170.463 104.197 169.299 104.985 168.381C105.773 167.463 106.858 166.851 108.05 166.65C109.243 166.449 110.468 166.673 111.513 167.282L123.624 157.98L108.647 153.29L90.5327 167.204L88.9689 179.129L88.2507 179.681L95.5136 189.667L96.4884 188.918L108.415 190.485Z" stroke="#111629" stroke-width="4.19779" stroke-linecap="round" stroke-linejoin="round"/>
<path d="M70.7795 193.101L63.7012 198.538L71.2207 208.328L78.299 202.891L70.7795 193.101Z" stroke="#111629" stroke-width="4.19779" stroke-linecap="round" stroke-linejoin="round"/>
<path d="M63.701 198.538L43.4963 214.058L51.0158 223.847L71.2205 208.327L63.701 198.538Z" stroke="#111629" stroke-width="4.19779" stroke-linecap="round" stroke-linejoin="round"/>
<path d="M72.8964 97.8702V90.1135H64.8941C64.5812 88.9802 64.1297 87.8897 63.5498 86.867L69.2076 81.2092L63.7218 75.7234L58.064 81.3812C57.0412 80.8012 55.9508 80.3497 54.8174 80.0369V72.0381H47.0643V80.0369C45.9309 80.3497 44.8405 80.8012 43.8177 81.3812L38.16 75.7234L32.6741 81.2092L38.3319 86.867C37.752 87.8897 37.3005 88.9802 36.9877 90.1135H28.9854V97.8702H36.9877C37.3005 99.0036 37.752 100.094 38.3319 101.117L32.6741 106.775L38.16 112.26L43.8177 106.603C44.8405 107.183 45.9309 107.634 47.0643 107.947V115.946H54.8174V107.947C55.9508 107.634 57.0412 107.183 58.064 106.603L63.7218 112.26L69.2076 106.775L63.5498 101.117C64.1297 100.094 64.5812 99.0036 64.8941 97.8702H72.8964ZM57.6569 97.8702C56.976 99.0495 55.9967 100.029 54.8174 100.71C54.2314 101.051 53.6022 101.312 52.9467 101.485C51.6313 101.836 50.2469 101.836 48.9315 101.485C48.2771 101.312 47.6491 101.051 47.0643 100.71C45.2839 99.6784 43.9833 97.9854 43.4457 95.9994C43.2731 95.3442 43.1858 94.6694 43.186 93.9919C43.1852 93.314 43.2737 92.639 43.4492 91.9843C43.6228 91.3288 43.8837 90.6996 44.2249 90.1135C44.9068 88.935 45.8858 87.956 47.0643 87.2741C47.6491 86.933 48.2771 86.6721 48.9315 86.4985C50.2469 86.1475 51.6313 86.1475 52.9467 86.4985C53.6022 86.6721 54.2314 86.933 54.8174 87.2741C55.9959 87.956 56.975 88.935 57.6569 90.1135C57.998 90.6995 58.2589 91.3288 58.4325 91.9843C58.6081 92.639 58.6966 93.314 58.6958 93.9919C58.696 94.6694 58.6087 95.3442 58.436 95.9994C58.2597 96.6546 57.9977 97.2836 57.6569 97.8702Z" fill="white" stroke="#111629" stroke-width="4.19779" stroke-linecap="round" stroke-linejoin="round"/>
<path d="M112.011 51.1238C114.729 51.1238 116.932 48.9207 116.932 46.2031C116.932 43.4855 114.729 41.2825 112.011 41.2825C109.293 41.2825 107.09 43.4855 107.09 46.2031C107.09 48.9207 109.293 51.1238 112.011 51.1238Z" fill="white" stroke="#111629" stroke-width="4.19779" stroke-linecap="round" stroke-linejoin="round"/>
<path d="M163.956 43.3677H125.703C125.097 43.3677 124.605 43.8595 124.605 44.4662V48.7744C124.605 49.3811 125.097 49.873 125.703 49.873H163.956C164.562 49.873 165.054 49.3811 165.054 48.7744V44.4662C165.054 43.8595 164.562 43.3677 163.956 43.3677Z" fill="white" stroke="#111629" stroke-width="4.19779" stroke-linecap="round" stroke-linejoin="round"/>
<path d="M122.186 72.9541V102.039C122.186 103.555 122.788 105.008 123.86 106.08C124.931 107.151 126.385 107.753 127.9 107.753H268.095C269.61 107.753 271.064 107.151 272.135 106.08C273.207 105.008 273.809 103.555 273.809 102.039V72.9541H122.186Z" fill="white" stroke="#111629" stroke-width="4.19779" stroke-linecap="round" stroke-linejoin="round"/>
<path d="M273.809 70.4324C273.809 69.682 273.661 68.939 273.374 68.2457C273.087 67.5524 272.666 66.9225 272.135 66.3919C271.605 65.8613 270.975 65.4404 270.282 65.1532C269.588 64.8661 268.845 64.7183 268.095 64.7183H127.9C127.15 64.7183 126.407 64.8661 125.713 65.1532C125.02 65.4404 124.39 65.8613 123.86 66.3919C123.329 66.9225 122.908 67.5524 122.621 68.2457C122.334 68.939 122.186 69.682 122.186 70.4324V72.9541H273.809V70.4324Z" fill="#111629" stroke="#111629" stroke-width="2.0989" stroke-linecap="round" stroke-linejoin="round"/>
<path d="M271.087 116.911H124.908C123.405 116.911 122.186 118.13 122.186 119.634V139.559C122.186 141.062 123.405 142.281 124.908 142.281H271.087C272.59 142.281 273.809 141.062 273.809 139.559V119.634C273.809 118.13 272.59 116.911 271.087 116.911Z" fill="white" stroke="#111629" stroke-width="4.19779" stroke-linecap="round" stroke-linejoin="round"/>
<path d="M182.544 282.403C178.968 279.069 175.026 274.878 175.863 270.061C176.496 266.425 179.664 263.882 181.902 260.949C184.996 256.893 186.441 251.491 185.272 246.525C184.104 241.56 180.155 237.223 175.186 236.069C170.216 234.915 164.507 237.308 162.247 241.881C160.476 245.466 160.878 249.68 160.512 253.661C160.147 257.643 158.442 262.112 154.625 263.301C151.437 264.295 148.061 262.589 145.342 260.65C142.624 258.711 139.925 256.398 136.613 255.973C132.726 255.475 128.838 257.888 126.87 261.277C124.902 264.665 124.628 268.828 125.318 272.685C126.008 276.542 127.588 280.175 129.155 283.767L118.85 295.572L115.468 334.938H150.876C154.527 333.29 157.935 331.124 161.319 328.966C164.114 327.183 166.91 325.4 169.705 323.617C171.597 322.41 173.695 320.868 173.821 318.628C174.077 314.085 166.338 312.327 166.465 307.779C166.517 305.925 168.014 304.367 169.721 303.641C171.428 302.916 173.33 302.846 175.181 302.727C178.017 302.546 180.905 302.211 183.483 301.013C186.061 299.816 188.314 297.618 188.926 294.842C189.978 290.067 186.12 285.737 182.544 282.403Z" fill="#111629" stroke="#111629" stroke-width="2.0989" stroke-linecap="round" stroke-linejoin="round"/>
<path d="M167.556 260.392C167.556 260.392 163.812 282.16 152.173 292.87C140.534 303.579 138.533 317.924 139.033 324.262C139.533 330.601 133.695 334.938 133.695 334.938" stroke="white" stroke-width="6.29669" stroke-linecap="round" stroke-linejoin="round"/>
<path d="M154.045 314.921C154.045 314.921 143.6 311.329 139.315 317.629" stroke="white" stroke-width="6.29669" stroke-linecap="round" stroke-linejoin="round"/>
<path d="M140.534 287.212C140.534 287.212 145.474 289.61 145.172 301.348" stroke="white" stroke-width="6.29669" stroke-linecap="round" stroke-linejoin="round"/>
<path d="M168.724 282.061C168.724 282.061 165.198 287.206 156.369 288.136" stroke="white" stroke-width="6.29669" stroke-linecap="round" stroke-linejoin="round"/>
<path d="M131.251 325.863C134.925 318.652 131.231 312.929 125.127 308.952C119.099 303.346 123.643 299.667 129.005 296.259C138.641 287.845 129.052 272.517 117.259 277.552C113.021 279.603 108.101 285.486 103.159 282.047C100.319 279.798 101.256 275.41 101.56 271.801C102.503 262.748 95.6787 249.844 85.355 251.501C80.7568 252.652 78.1364 257.61 73.8586 259.651C61.2187 265.141 51.414 247.349 39.0924 248.506C15.2048 253.863 22.7831 295.632 56.9963 290.474C59.7298 290.699 62.5894 291.733 64.117 294.011C69.0832 301.802 56.3765 311.027 61.125 318.854C65.2648 324.803 73.4835 321.733 79.4955 321.609C87.9311 321.349 91.2967 328.715 86.6318 334.938H119.4C124.313 333.269 128.746 330.59 131.251 325.863Z" fill="white" stroke="#111629" stroke-width="4.19779" stroke-linecap="round" stroke-linejoin="round"/>
<path d="M97.7911 334.938L100.418 329.933C111.928 290.151 51.6287 269.384 51.6287 269.384" fill="white"/>
<path d="M97.7911 334.938L100.418 329.933C111.928 290.151 51.6287 269.384 51.6287 269.384" stroke="#111629" stroke-width="4.19779" stroke-linecap="round" stroke-linejoin="round"/>
<path d="M105.923 298.658C105.923 298.658 107.305 307.535 101.068 312.729L105.923 298.658Z" fill="white"/>
<path d="M105.923 298.658C105.923 298.658 107.305 307.535 101.068 312.729" stroke="#111629" stroke-width="4.19779" stroke-linecap="round" stroke-linejoin="round"/>
<path d="M80.4856 269.384C80.6524 269.801 85.5469 278.009 81.5568 285.664L80.4856 269.384Z" fill="white"/>
<path d="M80.4856 269.384C80.6524 269.801 85.5469 278.009 81.5568 285.664" stroke="#111629" stroke-width="4.19779" stroke-linecap="round" stroke-linejoin="round"/>
<path d="M81.0693 297.825C81.0693 297.825 91.6124 296.605 95.4316 300.008L81.0693 297.825Z" fill="white"/>
<path d="M81.0693 297.825C81.0693 297.825 91.6124 296.605 95.4316 300.008" stroke="#111629" stroke-width="4.19779" stroke-linecap="round" stroke-linejoin="round"/>
<path d="M54.2976 275.556C54.2976 275.556 60.0433 277.398 65.2187 275.393L54.2976 275.556Z" fill="white"/>
<path d="M54.2976 275.556C54.2976 275.556 60.0433 277.398 65.2187 275.393" stroke="#111629" stroke-width="4.19779" stroke-linecap="round" stroke-linejoin="round"/>
<path d="M8.84399 334.968H393.156" stroke="#111629" stroke-width="6.29669" stroke-linecap="round" stroke-linejoin="round"/>
<path d="M145.205 178.09L148.003 171.921L153.416 174.532L150.772 180.604L145.205 178.09Z" fill="#111629" stroke="#111629" stroke-width="2.0989" stroke-linecap="round" stroke-linejoin="round"/>
<path d="M229.108 342.673C228.65 341.18 228.099 339.456 227.959 339.316C227.709 339.066 220.015 339.316 220.015 339.316C220.015 339.316 218.82 339.894 217.036 340.79C219.991 344.29 224.608 344.045 229.108 342.673Z" fill="#111629" stroke="#111629" stroke-width="2.0989" stroke-linecap="round" stroke-linejoin="round"/>
<path d="M230.356 349.22C230.462 348.202 230.303 346.819 229.773 344.883C229.773 344.883 229.469 343.85 229.108 342.673C224.608 344.045 219.991 344.289 217.036 340.79C212.078 343.278 202.575 348.218 201.563 350.012C200.937 351.123 200.61 352.517 200.822 353.702C210.689 354.592 221.448 353.554 230.356 349.22Z" fill="white" stroke="#111629" stroke-width="4.19779" stroke-linecap="round" stroke-linejoin="round"/>
<path d="M200.822 353.702C201.075 355.121 202.1 356.239 204.315 356.205C208.381 356.142 223.27 353.769 226.271 352.702C228.264 351.993 230.098 351.69 230.356 349.22C221.449 353.554 210.689 354.592 200.822 353.702Z" fill="white" stroke="#111629" stroke-width="4.19779" stroke-linecap="round" stroke-linejoin="round"/>
<path d="M334.527 332.412C332.592 330.427 330.855 328.933 330.855 328.933L320.722 333.874C320.722 333.874 319.24 335.28 317.277 337.149C323.54 338.666 330.741 337.14 334.527 332.412Z" fill="#111629" stroke="#111629" stroke-width="2.0989" stroke-linecap="round" stroke-linejoin="round"/>
<path d="M315.47 349.798C312.477 350.653 309.16 351.018 306.011 350.404C306.115 350.771 306.266 351.123 306.461 351.451C307.649 353.515 315.531 351.764 323.412 349.012C330.697 346.468 339.584 343.122 339.505 339.519C333.284 346.012 323.486 346.792 315.47 349.798Z" fill="white" stroke="#111629" stroke-width="4.19779" stroke-linecap="round" stroke-linejoin="round"/>
<path d="M334.527 332.412C330.741 337.14 323.54 338.666 317.277 337.149C313.918 340.348 309.146 344.91 307.962 346.134C306.422 347.725 305.601 348.896 306.011 350.404C309.16 351.018 312.477 350.653 315.47 349.798C323.486 346.792 333.284 346.012 339.504 339.518C339.496 339.211 339.427 338.908 339.3 338.628C338.44 336.694 336.392 334.325 334.527 332.412Z" fill="white" stroke="#111629" stroke-width="4.19779" stroke-linecap="round" stroke-linejoin="round"/>
<path d="M278.146 241.028C281.315 271.72 317.344 333.687 318.095 334.437C318.846 335.188 329.855 335.939 331.606 330.684C333.357 325.43 321.598 285.898 317.344 272.387C320.347 258.125 321.348 218.843 313.591 203.283C305.835 187.722 294.076 185.817 294.076 185.817L273.809 192.572" fill="white"/>
<path d="M278.146 241.028C281.315 271.72 317.344 333.687 318.095 334.437C318.846 335.188 329.855 335.939 331.606 330.684C333.357 325.43 321.598 285.898 317.344 272.387C320.347 258.125 321.348 218.843 313.591 203.283C305.835 187.722 294.076 185.817 294.076 185.817L273.809 192.572" stroke="#111629" stroke-width="4.19779" stroke-linecap="round" stroke-linejoin="round"/>
<path d="M295.966 209.211C295.966 209.211 300.831 218.843 291.073 234.856C279.186 254.364 246.12 262.212 236.862 265.214C239.447 286.231 232.109 334.104 228.272 341.443C224.269 344.112 218.264 340.275 218.264 340.275C218.264 340.275 207.589 285.731 212.593 256.541C217.597 227.35 262.467 201.162 262.467 201.162L284.068 192.572" fill="white"/>
<path d="M295.966 209.211C295.966 209.211 300.831 218.843 291.073 234.856C279.186 254.364 246.12 262.212 236.862 265.214C239.447 286.231 232.109 334.104 228.272 341.443C224.269 344.112 218.264 340.275 218.264 340.275C218.264 340.275 207.589 285.731 212.593 256.541C217.597 227.35 262.467 201.162 262.467 201.162L284.068 192.572" stroke="#111629" stroke-width="4.19779" stroke-linecap="round" stroke-linejoin="round"/>
<path d="M258.259 203.794C258.259 203.794 270.876 206.786 278.394 204.079C285.913 201.372 294.692 197.462 295.966 190.545L295.941 187.131L260.851 201.071L258.259 203.794Z" fill="#111629" stroke="#111629" stroke-width="2.0989" stroke-linecap="round" stroke-linejoin="round"/>
<path d="M250.916 126.268C250.916 126.268 246.787 117.261 247.413 113.133C248.038 109.004 257.046 104.375 247.538 95.9936C238.03 87.6118 231.525 97.1196 230.899 101.373C230.274 105.626 230.274 112.882 237.905 114.759L237.655 128.77" fill="white"/>
<path d="M250.916 126.268C250.916 126.268 246.787 117.261 247.413 113.133C248.038 109.004 257.046 104.375 247.538 95.9936C238.03 87.6118 231.525 97.1196 230.899 101.373C230.274 105.626 230.274 112.882 237.905 114.759L237.655 128.77" stroke="#111629" stroke-width="4.19779" stroke-linecap="round" stroke-linejoin="round"/>
<path d="M240.768 114.19L237.905 114.759L237.882 116.028L240.768 114.19Z" fill="#111629" stroke="#111629" stroke-width="2.0989" stroke-linecap="round" stroke-linejoin="round"/>
<path d="M284.881 80.4811C284.881 80.4811 279.251 73.0375 272.495 72.6622C265.74 72.2869 264.489 75.477 266.053 77.3535C267.617 79.2301 271.557 79.8556 272.433 79.8556C273.309 79.8556 269.806 81.6695 270.119 82.4201C270.431 83.1707 273.371 82.7329 274.872 82.1699C276.374 81.607 279.314 81.4193 280.064 82.5452C280.815 83.6712 284.881 80.4811 284.881 80.4811Z" fill="white" stroke="#111629" stroke-width="4.19779" stroke-linecap="round" stroke-linejoin="round"/>
<path d="M252.917 126.894C252.917 126.894 276.061 129.896 282.066 119.763C288.071 109.63 285.394 91.5094 279.063 83.984C277.584 82.4709 279.189 80.8564 281.065 80.1058C282.942 79.3552 284.943 77.9791 287.946 82.2325C290.948 86.486 303.208 107.128 300.775 126.393C298.54 144.09 290.448 153.165 279.063 154.541C267.054 142.782 252.917 126.894 252.917 126.894Z" fill="#3A688F" stroke="#111629" stroke-width="4.19779" stroke-linecap="round" stroke-linejoin="round"/>
<path d="M160.717 114.446C160.717 114.446 153.586 105.564 153.336 101.936C153.086 98.308 153.837 96.4315 156.088 95.8686C158.34 95.3056 159.216 98.8084 160.967 99.5591C162.719 100.31 165.158 97.4949 165.534 99.8093C165.909 102.124 162.781 106.815 163.032 109.38C163.282 111.944 164.345 112.695 164.345 112.695L160.717 114.446Z" fill="white" stroke="#111629" stroke-width="4.19779" stroke-linecap="round" stroke-linejoin="round"/>
<path d="M242.534 156.042C188.365 166.301 159.703 115.611 159.157 114.465C158.61 113.32 162.276 109.859 164.053 110.756C165.83 111.653 200.5 129.896 228.272 128.395C236.405 127.899 237.217 127.832 240.157 126.644C243.097 125.455 251.416 123.391 253.73 125.205C256.045 127.019 265.302 132.398 277.562 147.911C289.822 163.423 297.078 185.066 295.827 188.944C294.576 192.822 284.318 204.332 263.301 203.206C248.163 201.955 223.034 175.492 217.529 156.476" fill="#3A688F"/>
<path d="M242.534 156.042C188.365 166.301 159.703 115.611 159.157 114.465C158.61 113.32 162.276 109.859 164.053 110.756C165.83 111.653 200.5 129.896 228.272 128.395C236.405 127.899 237.217 127.832 240.157 126.644C243.097 125.455 251.416 123.391 253.73 125.205C256.045 127.019 265.302 132.398 277.562 147.911C289.822 163.423 297.078 185.066 295.827 188.944C294.576 192.822 284.318 204.332 263.301 203.206C248.163 201.955 223.034 175.492 217.529 156.476" stroke="#111629" stroke-width="4.19779" stroke-linecap="round" stroke-linejoin="round"/>
<path d="M231.218 93.689C230.541 87.9601 237.293 84.4907 242.202 86.59C249.316 88.6391 249.817 98.1955 256.413 100.703C258.154 101.24 260.064 101.001 261.802 101.551C267.441 103.406 267.744 111.194 263.715 114.907C258.692 120.116 247.423 121.323 244.966 112.977C244.001 110.312 241.248 107.229 245.608 106.226C249.896 104.236 248.321 99.3921 243.552 101.055C241.241 100.965 239.047 99.7478 236.899 98.9602C234.25 98.2578 231.527 96.7002 231.218 93.689Z" fill="#111629" stroke="#111629" stroke-width="2.0989" stroke-linecap="round" stroke-linejoin="round"/>
<path d="M356.334 149.449H326.861V158.794H356.334V149.449Z" fill="white" stroke="#111629" stroke-width="4.19779" stroke-linecap="round" stroke-linejoin="round"/>
<path d="M344.605 162.782H326.861V169.636H344.605V162.782Z" fill="white" stroke="#111629" stroke-width="4.19779" stroke-linecap="round" stroke-linejoin="round"/>
<path d="M324.288 148.346H321.348V170.668H324.288V148.346Z" fill="white" stroke="#111629" stroke-width="4.19779" stroke-linecap="round" stroke-linejoin="round"/>
<path d="M67.1532 137.071H25.5659V165.166H67.1532V137.071Z" fill="white" stroke="#111629" stroke-width="4.19779" stroke-linecap="round" stroke-linejoin="round"/>
<path d="M37.4111 155.734L43.6291 144.965L49.8471 155.734H37.4111Z" fill="white" stroke="#111629" stroke-width="4.19779" stroke-linecap="round" stroke-linejoin="round"/>
<path d="M51.2576 156.179C54.3142 156.179 56.792 153.644 56.792 150.516C56.792 147.389 54.3142 144.854 51.2576 144.854C48.201 144.854 45.7231 147.389 45.7231 150.516C45.7231 153.644 48.201 156.179 51.2576 156.179Z" fill="#111629" stroke="#111629" stroke-width="2.0989" stroke-linecap="round" stroke-linejoin="round"/>
<path d="M361.434 65.6989C361.62 66.5066 361.991 67.2603 362.517 67.9008C363.043 68.5413 363.71 69.0513 364.466 69.3907L361.199 70.1158L358.629 68.3756L339.887 72.5351L343.877 75.245L368.832 69.7067L368.869 69.6784C371.788 68.7973 373.61 65.9613 372.983 63.136C372.324 60.1651 369.202 58.3284 366.014 59.0358C362.824 59.7439 360.775 62.7281 361.434 65.6989ZM371.638 63.4346C372.144 65.7163 370.572 68.0068 368.126 68.5498C365.679 69.0927 363.284 67.6827 362.777 65.401C362.271 63.122 363.846 60.8308 366.292 60.2879C368.739 59.745 371.132 61.1556 371.638 63.4346Z" fill="white" stroke="#111629" stroke-width="4.19779" stroke-linecap="round" stroke-linejoin="round"/>
<path d="M365.309 83.1211C368.476 83.9161 371.647 82.1659 372.388 79.2144C373.092 76.4073 371.348 73.5223 368.455 72.5612L368.419 72.5318L344.705 66.5798L339.562 68.9079L358.183 73.5816L360.8 71.9128L364.046 72.7276C363.281 73.0461 362.6 73.5375 362.057 74.1633C361.513 74.7891 361.122 75.5323 360.914 76.3345C360.173 79.2861 362.139 82.3255 365.309 83.1211ZM365.621 81.8772C363.19 81.2672 361.68 78.9335 362.248 76.6693C362.817 74.4025 365.251 73.0589 367.681 73.6689C370.112 74.279 371.62 76.612 371.051 78.8788C370.483 81.143 368.051 82.4873 365.621 81.8772Z" fill="white" stroke="#111629" stroke-width="4.19779" stroke-linecap="round" stroke-linejoin="round"/>
<path d="M357.135 72.5119C357.976 72.5119 358.658 71.83 358.658 70.9889C358.658 70.1477 357.976 69.4658 357.135 69.4658C356.293 69.4658 355.612 70.1477 355.612 70.9889C355.612 71.83 356.293 72.5119 357.135 72.5119Z" fill="white" stroke="#111629" stroke-width="4.19779" stroke-linecap="round" stroke-linejoin="round"/>
</g>
<defs>
<clipPath id="clip0_1_2196">
<rect width="402" height="402" fill="white"/>
</clipPath>
</defs>
</svg>

