<svg width="544" height="311" viewBox="0 0 544 311" fill="none" xmlns="http://www.w3.org/2000/svg">
<path d="M543.354 119.971V101.78C543.354 100.062 543.015 98.3612 542.358 96.7743C541.701 95.1874 540.737 93.7456 539.523 92.531C538.308 91.3165 536.866 90.353 535.28 89.6957C533.693 89.0384 531.992 88.7001 530.274 88.7001H494.108C490.639 88.7001 487.313 87.3221 484.86 84.8692C482.407 82.4164 481.029 79.0896 481.029 75.6207V57.4295C481.029 50.2059 496.885 44.3501 504.108 44.3501H505.566C509.035 44.3501 512.362 42.9721 514.815 40.5192C517.267 38.0663 518.645 34.7395 518.645 31.2706V13.0795C518.645 11.3618 518.307 9.66105 517.65 8.07417C516.993 6.4873 516.029 5.04543 514.815 3.83089C513.6 2.61635 512.158 1.65292 510.571 0.995613C508.984 0.338309 507.284 0 505.566 0H63.6588C61.9412 0 60.2404 0.338309 58.6535 0.995613C57.0667 1.65292 55.6248 2.61635 54.4103 3.83089C53.1957 5.04543 52.2323 6.4873 51.575 8.07417C50.9177 9.66105 50.5794 11.3618 50.5794 13.0795V31.2706C50.5794 32.9882 50.9177 34.689 51.575 36.2759C52.2323 37.8628 53.1957 39.3046 54.4103 40.5192C55.6248 41.7337 57.0667 42.6972 58.6535 43.3545C60.2404 44.0118 61.9412 44.3501 63.6588 44.3501C67.1277 44.3501 70.4545 45.7281 72.9074 48.181C75.3603 50.6338 76.7383 53.9606 76.7383 57.4295V75.6207C76.7383 79.0896 75.3603 82.4163 72.9074 84.8692C70.4546 87.3221 67.1278 88.7001 63.6589 88.7001H13.0794C11.3618 88.7001 9.66103 89.0384 8.07416 89.6957C6.48729 90.353 5.04542 91.3165 3.83088 92.531C2.61634 93.7456 1.65291 95.1874 0.995609 96.7743C0.338306 98.3612 -1.31322e-06 100.062 0 101.78V119.971C0 123.44 1.37801 126.766 3.83088 129.219C6.28376 131.672 9.61056 133.05 13.0794 133.05H32.926C36.3949 133.05 39.7217 134.428 42.1746 136.881C44.6275 139.334 46.0055 142.661 46.0055 146.13V164.321C46.0055 166.039 45.6672 167.739 45.0099 169.326C44.3526 170.913 43.3891 172.355 42.1746 173.57C40.9601 174.784 39.5182 175.747 37.9313 176.405C36.3444 177.062 34.6437 177.4 32.926 177.4H32.878C29.4091 177.4 26.0823 178.778 23.6295 181.231C21.1766 183.684 19.7986 187.011 19.7986 190.48V208.671C19.7986 210.389 20.1369 212.089 20.7942 213.676C21.4515 215.263 22.4149 216.705 23.6295 217.919C24.844 219.134 26.2859 220.097 27.8727 220.755C29.4596 221.412 31.1604 221.75 32.878 221.75H35.7494C39.2183 221.75 42.5451 223.128 44.998 225.581C47.4509 228.034 48.8289 231.361 48.8289 234.83V253.021C48.8289 256.49 47.4509 259.817 44.998 262.27C42.5451 264.722 39.2183 266.1 35.7494 266.1H18.625C16.9073 266.1 15.2065 266.439 13.6197 267.096C12.0328 267.753 10.5909 268.717 9.37638 269.931C8.16184 271.146 7.19841 272.588 6.54111 274.175C5.88381 275.762 5.5455 277.462 5.5455 279.18V297.371C5.5455 300.84 6.92351 304.167 9.37638 306.62C11.8293 309.073 15.1561 310.451 18.625 310.451H502.588C506.057 310.451 509.384 309.073 511.837 306.62C514.289 304.167 515.667 300.84 515.667 297.371V279.18C515.667 277.462 515.329 275.762 514.672 274.175C514.014 272.588 513.051 271.146 511.837 269.931C510.622 268.717 509.18 267.753 507.593 267.096C506.006 266.439 504.306 266.1 502.588 266.1H491.247C487.779 266.1 484.452 264.722 481.999 262.27C479.546 259.817 478.168 256.49 478.168 253.021V234.83C478.168 231.361 479.546 228.034 481.999 225.581C484.452 223.128 487.779 221.75 491.247 221.75H517.987C521.456 221.75 524.783 220.372 527.236 217.919C529.689 215.467 531.067 212.14 531.067 208.671V190.48C531.067 187.011 529.689 183.684 527.236 181.231C524.783 178.778 521.456 177.4 517.987 177.4H509.876C506.407 177.4 503.08 176.022 500.627 173.57C498.174 171.117 496.796 167.79 496.796 164.321V146.13C496.796 142.661 498.174 139.334 500.627 136.881C503.08 134.428 506.407 133.05 509.876 133.05H530.274C533.743 133.05 537.07 131.672 539.523 129.219C541.976 126.766 543.354 123.44 543.354 119.971Z" fill="#DBE8EC"/>
<path d="M330.957 235.012L312.378 207.392C327.356 194.085 336.795 175.642 338.829 155.71C340.863 135.779 335.344 115.81 323.363 99.7513C311.383 83.6929 293.813 72.7146 274.127 68.9872C254.442 65.2598 234.075 69.0546 217.053 79.6213C200.031 90.188 187.593 106.757 182.199 126.053C176.806 145.348 178.849 165.965 187.925 183.827C197 201.688 212.448 215.494 231.213 222.515C249.978 229.535 270.694 229.259 289.265 221.74L307.375 248.544C308.264 250.092 309.448 251.451 310.862 252.541C312.275 253.632 313.89 254.433 315.613 254.9C317.336 255.366 319.134 255.489 320.905 255.261C322.675 255.032 324.383 254.457 325.932 253.569C327.48 252.68 328.838 251.496 329.929 250.082C331.019 248.669 331.821 247.055 332.287 245.331C332.754 243.608 332.877 241.81 332.648 240.04C332.42 238.269 331.845 236.561 330.957 235.012Z" fill="#30546E"/>
<path d="M259.41 204.494C290.916 204.494 316.458 178.953 316.458 147.446C316.458 115.939 290.916 90.3979 259.41 90.3979C227.903 90.3979 202.362 115.939 202.362 147.446C202.362 178.953 227.903 204.494 259.41 204.494Z" fill="#FB016E"/>
<path d="M259.41 90.3979C256.686 90.4007 253.967 90.5971 251.271 90.9856C264.85 92.9419 277.27 99.7268 286.253 110.097C295.236 120.466 300.18 133.726 300.18 147.446C300.18 161.165 295.236 174.425 286.253 184.795C277.27 195.165 264.85 201.95 251.271 203.906C259.026 205.024 266.928 204.533 274.485 202.462C282.042 200.392 289.091 196.787 295.193 191.873C301.296 186.958 306.32 180.839 309.953 173.897C313.587 166.955 315.751 159.339 316.311 151.524C316.872 143.709 315.816 135.862 313.21 128.473C310.605 121.083 306.505 114.31 301.166 108.575C295.827 102.84 289.365 98.2663 282.181 95.1389C274.996 92.0116 267.245 90.3977 259.41 90.3979Z" fill="#FB42C7"/>
<path d="M228.854 157.386C233.73 157.386 237.683 153.433 237.683 148.557C237.683 143.681 233.73 139.728 228.854 139.728C223.978 139.728 220.025 143.681 220.025 148.557C220.025 153.433 223.978 157.386 228.854 157.386Z" fill="#FB42C7"/>
<path d="M287.956 142.692C291.331 142.692 294.068 139.955 294.068 136.58C294.068 133.204 291.331 130.467 287.956 130.467C284.58 130.467 281.843 133.204 281.843 136.58C281.843 139.955 284.58 142.692 287.956 142.692Z" fill="#FB42C7"/>
<path d="M253.826 128.646C256.076 128.646 257.901 126.822 257.901 124.571C257.901 122.321 256.076 120.497 253.826 120.497C251.575 120.497 249.751 122.321 249.751 124.571C249.751 126.822 251.575 128.646 253.826 128.646Z" fill="#FB42C7"/>
<path d="M255.335 182.914C257.585 182.914 259.409 181.089 259.409 178.839C259.409 176.588 257.585 174.764 255.335 174.764C253.084 174.764 251.26 176.588 251.26 178.839C251.26 181.089 253.084 182.914 255.335 182.914Z" fill="#FB42C7"/>
<path d="M278.884 169.428C281.928 169.428 284.397 166.959 284.397 163.915C284.397 160.87 281.928 158.402 278.884 158.402C275.839 158.402 273.371 160.87 273.371 163.915C273.371 166.959 275.839 169.428 278.884 169.428Z" fill="#FB42C7"/>
<path d="M216.893 203.244C218.623 203.244 220.025 201.842 220.025 200.112C220.025 198.382 218.623 196.979 216.893 196.979C215.163 196.979 213.76 198.382 213.76 200.112C213.76 201.842 215.163 203.244 216.893 203.244Z" fill="#6B95C5"/>
<path d="M319.59 116.993C321.32 116.993 322.722 115.591 322.722 113.861C322.722 112.131 321.32 110.728 319.59 110.728C317.86 110.728 316.458 112.131 316.458 113.861C316.458 115.591 317.86 116.993 319.59 116.993Z" fill="#3086A3"/>
<path d="M317.688 180.975C315.787 185.01 313.456 188.828 310.736 192.363C307.922 195.877 304.765 199.101 301.31 201.988C297.783 204.827 293.989 207.318 289.982 209.426C281.875 213.588 272.974 215.974 263.872 216.426C261.603 216.447 259.338 216.53 257.078 216.393C254.82 216.266 252.571 216.015 250.341 215.64C241.459 214.214 233.02 210.78 225.666 205.6C233.583 209.296 242.062 211.644 250.753 212.547C259.314 213.382 267.955 212.674 276.265 210.456C280.399 209.33 284.429 207.853 288.311 206.039C292.179 204.163 295.893 201.984 299.417 199.521C302.914 196.965 306.207 194.142 309.267 191.076C312.305 187.909 315.119 184.534 317.688 180.975Z" fill="#6B95C5"/>
<path d="M193.511 160.783C190.374 149.234 190.624 137.028 194.233 125.618C196.021 119.871 198.591 114.398 201.871 109.352C203.514 106.827 205.331 104.42 207.308 102.148C209.27 99.8597 211.382 97.7055 213.632 95.6995C215.898 93.712 218.286 91.8676 220.781 90.177C222.06 89.3826 223.294 88.5135 224.619 87.7942L226.582 86.6761L228.601 85.6639C229.938 84.972 231.347 84.4285 232.719 83.8162C234.133 83.3001 235.515 82.7044 236.958 82.2737C239.806 81.3216 242.72 80.5774 245.677 80.0472C251.568 79.0069 257.574 78.7735 263.529 79.3533C269.421 79.9541 275.195 81.405 280.672 83.6609C275.028 82.2141 269.235 81.4264 263.41 81.3138C257.658 81.2274 251.916 81.8287 246.307 83.1048C240.747 84.4142 235.372 86.41 230.305 89.0462C227.778 90.3547 225.331 91.812 222.977 93.4104C220.641 95.033 218.406 96.7962 216.284 98.6902C207.699 106.272 201.133 115.868 197.178 126.617C193.218 137.543 191.959 149.265 193.511 160.783Z" fill="#6B95C5"/>
<path d="M149.946 206.444V229.609C149.946 249.728 151.165 251.252 172.807 253.385V261.921H101.479V253.385C124.341 251.252 125.865 249.423 125.865 229.304V206.444H45.3931V197.3C74.3509 156.148 105.747 111.646 136.229 69.2754H149.946V191.812H179.818V206.444L149.946 206.444ZM125.865 101.282C106.662 129.325 85.324 160.416 64.2919 191.812H125.865V101.282Z" fill="#30546E"/>
<path d="M451.103 206.444V229.609C451.103 249.728 452.323 251.252 473.965 253.385V261.921H402.637V253.385C425.498 251.252 427.022 249.423 427.022 229.304V206.444H346.551V197.3C375.508 156.148 406.904 111.646 437.387 69.2754H451.103V191.812H480.976V206.444L451.103 206.444ZM427.022 101.282C407.819 129.325 386.481 160.416 365.45 191.812H427.022V101.282Z" fill="#30546E"/>
<path d="M27.5906 289.989C36.6635 289.989 44.0186 282.634 44.0186 273.561C44.0186 264.488 36.6635 257.133 27.5906 257.133C18.5177 257.133 11.1626 264.488 11.1626 273.561C11.1626 282.634 18.5177 289.989 27.5906 289.989Z" fill="#B9D4DB"/>
<path d="M48.2656 255.757C52.9915 255.757 56.8226 251.926 56.8226 247.2C56.8226 242.474 52.9915 238.643 48.2656 238.643C43.5396 238.643 39.7085 242.474 39.7085 247.2C39.7085 251.926 43.5396 255.757 48.2656 255.757Z" fill="#B9D4DB"/>
<path d="M90.7968 292.875C94.8871 292.875 98.2029 289.559 98.2029 285.468C98.2029 281.378 94.8871 278.062 90.7968 278.062C86.7065 278.062 83.3906 281.378 83.3906 285.468C83.3906 289.559 86.7065 292.875 90.7968 292.875Z" fill="#B9D4DB"/>
<path d="M73.5971 268.451C76.3231 268.451 78.533 266.242 78.533 263.516C78.533 260.789 76.3231 258.58 73.5971 258.58C70.871 258.58 68.6611 260.789 68.6611 263.516C68.6611 266.242 70.871 268.451 73.5971 268.451Z" fill="#B9D4DB"/>
<path d="M61.9781 300.324C68.5131 300.324 73.8107 295.027 73.8107 288.492C73.8107 281.957 68.5131 276.659 61.9781 276.659C55.4431 276.659 50.1455 281.957 50.1455 288.492C50.1455 295.027 55.4431 300.324 61.9781 300.324Z" fill="#B9D4DB"/>
<path d="M254.958 52.6494C264.031 52.6494 271.386 45.2944 271.386 36.2214C271.386 27.1485 264.031 19.7935 254.958 19.7935C245.885 19.7935 238.53 27.1485 238.53 36.2214C238.53 45.2944 245.885 52.6494 254.958 52.6494Z" fill="#B9D4DB"/>
<path d="M222.371 60.0559C226.461 60.0559 229.777 56.7401 229.777 52.6498C229.777 48.5595 226.461 45.2437 222.371 45.2437C218.281 45.2437 214.965 48.5595 214.965 52.6498C214.965 56.7401 218.281 60.0559 222.371 60.0559Z" fill="#B9D4DB"/>
<path d="M213.292 36.2214C219.827 36.2214 225.125 30.9237 225.125 24.3887C225.125 17.8538 219.827 12.5562 213.292 12.5562C206.757 12.5562 201.459 17.8538 201.459 24.3887C201.459 30.9237 206.757 36.2214 213.292 36.2214Z" fill="#B9D4DB"/>
</svg>
